<?xml version="1.0" encoding="UTF-8" standalone="no"?>
<!-- Created with Inkscape (http://www.inkscape.org/) -->

<svg
   width="128"
   height="128"
   viewBox="0 0 33.866667 33.866667"
   version="1.1"
   id="svg1"
   xml:space="preserve"
   inkscape:version="1.3.2 (091e20e, 2023-11-25)"
   sodipodi:docname="conquest_icon.svg"
   inkscape:export-filename="conquest_icon.png"
   inkscape:export-xdpi="96"
   inkscape:export-ydpi="96"
   xmlns:inkscape="http://www.inkscape.org/namespaces/inkscape"
   xmlns:sodipodi="http://sodipodi.sourceforge.net/DTD/sodipodi-0.dtd"
   xmlns="http://www.w3.org/2000/svg"
   xmlns:svg="http://www.w3.org/2000/svg"><sodipodi:namedview
     id="namedview1"
     pagecolor="#ffffff"
     bordercolor="#000000"
     borderopacity="0.25"
     inkscape:showpageshadow="2"
     inkscape:pageopacity="0.0"
     inkscape:pagecheckerboard="true"
     inkscape:deskcolor="#d1d1d1"
     inkscape:document-units="px"
     inkscape:zoom="3.7199403"
     inkscape:cx="63.710701"
     inkscape:cy="63.979522"
     inkscape:window-width="1424"
     inkscape:window-height="811"
     inkscape:window-x="0"
     inkscape:window-y="38"
     inkscape:window-maximized="0"
     inkscape:current-layer="g7" /><defs
     id="defs1" /><g
     inkscape:label="Layer 1"
     inkscape:groupmode="layer"
     id="layer1"><circle
       style="display:inline;fill:#ffffff;fill-opacity:0.95348835;stroke-width:0.837794"
       id="path1"
       cx="16.933334"
       cy="16.933334"
       r="16.933334" /><g
       id="g7"
       transform="matrix(2.0510281,0,0,2.0510281,-19.346936,-13.94749)"
       style="display:inline"
       inkscape:label="c"><path
         style="fill:#8c1a12;fill-opacity:1;stroke:none;stroke-width:0.264583;stroke-opacity:0.303318"
         d="m 20.625741,12.930947 3.485832,-2.06471 c -2.485345,-3.9357178 -9.015532,-2.6187601 -9.442015,2.317805 1.862215,-2.578328 4.736012,-2.010092 5.956183,-0.253095 z"
         id="path5"
         sodipodi:nodetypes="cccc" /><path
         style="fill:#f7ce45;fill-opacity:1;stroke:none;stroke-width:0.264583;stroke-opacity:0.303318"
         d="M 20.608393,7.8111701 C 7.5133514,5.0449079 7.6654125,21.594256 18.037304,18.554514 12.50059,19.087343 11.997966,7.6532677 20.608393,7.8111701 Z"
         id="path6"
         sodipodi:nodetypes="ccc" /><path
         style="fill:#8c1a12;fill-opacity:1;stroke:none;stroke-width:0.264583;stroke-opacity:0.303318"
         d="m 24.129156,19.043744 -3.468935,-2.053043 c -1.740229,3.16221 -7.593569,4.377289 -10.443738,-0.782037 1.81972,8.058023 10.994257,7.938173 13.912673,2.83508 z"
         id="path7"
         sodipodi:nodetypes="cccc" /></g><g
       id="g24"
       inkscape:label="hand"
       transform="translate(-1.2163545,-0.07551179)"><path
         style="display:inline;fill:#8c1a12;fill-opacity:1;stroke:none;stroke-width:0.264583;stroke-opacity:1"
         d="m 14.691005,18.240733 -0.53031,-1.37116 c -0.05645,-0.22138 -0.02189,-0.421088 0.171992,-0.582863 0.162459,-0.100296 0.334802,-0.185765 0.544642,-0.21499 0.104459,-0.01652 0.19324,0.02967 0.286654,0.05733 0.0164,-0.141241 -0.05409,-0.261793 0.19588,-0.458646 0.415251,-0.211698 0.683451,-0.222871 0.836074,-0.07644 l -0.281876,-2.006577 c 0.07882,-0.232114 0.243203,-0.421448 0.654526,-0.487311 0.519334,-0.05985 0.689907,0.141874 0.78352,0.401316 l 0.463423,2.76143 0.859961,-2.780541 c 0.202946,-0.309436 0.499444,-0.378308 0.869517,-0.257988 0.247363,0.129622 0.585525,0.136227 0.482534,0.740522 l -1.01533,3.191259 c 0.296092,0.184739 0.571295,0.382907 0.539124,0.778672 0.03826,0.514744 -0.06375,1.003985 -0.152255,1.495682 -0.113626,0.479832 -0.290476,0.675156 -0.474677,0.837402 -0.322735,0.281494 -0.651068,0.551794 -1.07922,0.622455 -0.532633,0.05832 -0.980042,0.04089 -1.40612,0.0045 -0.257645,-0.04348 -0.524556,-0.165728 -0.806056,-0.411985 -0.221326,-0.242494 -0.449016,-0.507265 -0.694103,-0.832925 -0.181549,-0.244663 -0.22244,-0.547932 -0.264208,-0.850837 z"
         id="path19"
         sodipodi:nodetypes="cccccccccccccccccccccccc" /><path
         style="fill:#f7ce45;fill-opacity:1;stroke:none;stroke-width:0.264583;stroke-opacity:1"
         d="m 14.441279,16.818168 c -0.03415,-0.134391 -0.0354,-0.204464 0.05022,-0.263633 l 0.297111,-0.13391 c 0.138582,-0.05696 0.26393,-0.004 0.284557,0.08369 l 0.493791,1.293062 c 0.05917,0.138687 0.119809,0.260831 -0.04603,0.334773 l -0.31385,0.121356 c -0.212747,0.07232 -0.24725,0.01274 -0.297111,-0.112986 z"
         id="path20"
         sodipodi:nodetypes="ccccccccc" /><path
         style="fill:#f7ce45;fill-opacity:1;stroke:none;stroke-width:0.264583;stroke-opacity:1"
         d="m 15.443995,16.161175 c -0.0238,-0.153363 0.03907,-0.220069 0.131392,-0.257309 l 0.323004,-0.07117 c 0.20263,-0.03225 0.240741,0.06477 0.240885,0.191612 l 0.186138,0.859521 c -0.355363,0.262783 -0.273401,0.525567 -0.31753,0.78835 -0.01584,0.105307 -0.236646,0.133001 -0.262783,-0.01095 z"
         id="path21"
         sodipodi:nodetypes="cccccccc" /><path
         style="fill:#f7ce45;fill-opacity:1;stroke:none;stroke-width:0.264583;stroke-opacity:1"
         d="m 16.711492,16.8292 -0.491958,-2.990986 c -0.04969,-0.310259 0.175612,-0.345522 0.374251,-0.40745 0.240814,-0.02994 0.439986,0.0052 0.494976,0.265597 l 0.542365,3.263562 z"
         id="path22"
         sodipodi:nodetypes="cccccc" /><path
         style="fill:#f7ce45;fill-opacity:1;stroke:none;stroke-width:0.264583;stroke-opacity:1"
         d="m 17.877426,16.958945 1.032742,-3.300381 c 0.149674,-0.232907 0.339781,-0.155829 0.522963,-0.131839 0.333871,0.09059 0.369801,0.25129 0.307625,0.43507 l -1.006374,3.150962 z"
         id="path23"
         sodipodi:nodetypes="cccccc" /><path
         style="fill:#f7ce45;fill-opacity:1;stroke:none;stroke-width:0.264583;stroke-opacity:1"
         d="m 14.920588,18.538808 c 0.193128,0.04264 0.374372,-0.0019 0.548558,-0.09812 0.226733,-0.09199 0.29526,-0.05216 0.356786,-0.432603 l 0.227451,-0.0089 c 0.336401,0.299948 0.778396,0.36759 1.23983,0.392464 0.03558,0.01741 0.05064,0.03955 0.0045,0.07582 -0.305903,0.234022 -0.539936,0.521946 -0.771549,0.811687 -0.03176,0.101093 -0.0083,0.141402 0.0223,0.173933 0.05604,0.04223 0.108363,0.09054 0.231911,0.0223 0.201936,-0.381041 0.493773,-0.722613 0.954402,-0.99008 0.05897,0.02967 0.126021,0.04662 0.142714,0.142714 l -0.0446,0.860746 c 0.02575,0.0733 0.08645,0.08668 0.156093,0.08474 0.04851,-0.0048 0.102183,0.0048 0.120416,-0.08474 l 0.04014,-0.905344 c 0.03297,-0.119934 -0.173168,-0.277908 -0.414763,-0.441523 -0.368049,0.03278 -0.660142,-0.01515 -0.927643,-0.0892 -0.203843,-0.03497 -0.401794,-0.0935 -0.561938,-0.303268 -0.05845,-0.169473 -0.0084,-0.338947 0.05798,-0.50842 0.06349,-0.09326 0.180647,-0.12569 0.338946,-0.111495 l 1.971242,0.24975 c 0.372969,0.139826 0.638978,0.333131 0.646674,0.655593 l -0.182853,1.382546 c -0.04886,0.222264 -0.126352,0.453915 -0.308013,0.619246 -0.313054,0.238203 -0.539976,0.441392 -0.78236,0.542821 -0.124908,0.03667 -0.261097,0.06135 -0.417562,0.06656 -0.420052,0.01251 -0.836985,-0.0044 -1.244395,-0.02995 -0.44498,-0.157822 -0.472445,-0.301293 -0.641249,-0.465882 -0.218328,-0.261658 -0.466757,-0.490479 -0.621235,-0.821791 -0.08196,-0.255491 -0.116065,-0.521616 -0.141783,-0.789605 z"
         id="path24"
         sodipodi:nodetypes="cccccccccccccccccccccccccccccc" /></g></g></svg>
