<?xml version="1.0" encoding="UTF-8" standalone="no"?>
<!-- Created with Inkscape (http://www.inkscape.org/) -->

<svg
   width="128"
   height="128"
   viewBox="0 0 33.866667 33.866667"
   version="1.1"
   id="svg1"
   xml:space="preserve"
   inkscape:version="1.3.2 (091e20e, 2023-11-25)"
   sodipodi:docname="icon_helmet.svg"
   inkscape:export-filename="icon_helmet.png"
   inkscape:export-xdpi="96"
   inkscape:export-ydpi="96"
   xmlns:inkscape="http://www.inkscape.org/namespaces/inkscape"
   xmlns:sodipodi="http://sodipodi.sourceforge.net/DTD/sodipodi-0.dtd"
   xmlns="http://www.w3.org/2000/svg"
   xmlns:svg="http://www.w3.org/2000/svg"><sodipodi:namedview
     id="namedview1"
     pagecolor="#ffffff"
     bordercolor="#000000"
     borderopacity="0.25"
     inkscape:showpageshadow="2"
     inkscape:pageopacity="0.0"
     inkscape:pagecheckerboard="true"
     inkscape:deskcolor="#d1d1d1"
     inkscape:document-units="px"
     inkscape:zoom="3.9517593"
     inkscape:cx="71.10757"
     inkscape:cy="63.769066"
     inkscape:window-width="1424"
     inkscape:window-height="811"
     inkscape:window-x="0"
     inkscape:window-y="38"
     inkscape:window-maximized="0"
     inkscape:current-layer="layer1" /><defs
     id="defs1" /><g
     inkscape:label="Layer 1"
     inkscape:groupmode="layer"
     id="layer1"><circle
       style="display:inline;fill:#ffffff;fill-opacity:0.95348835;stroke-width:0.837794"
       id="path1"
       cx="16.933334"
       cy="16.933334"
       r="16.933334" /><g
       id="g7"
       transform="matrix(1.3354557,0,0,1.3354557,-6.0002062,-3.1736423)"
       style="display:inline"
       inkscape:label="c"><path
         style="fill:#f7ce45;fill-opacity:1;stroke:none;stroke-width:0.264583;stroke-opacity:0.303318"
         d="m 20.625741,12.930947 3.485832,-2.06471 c -2.485345,-3.9357178 -9.015532,-2.6187601 -9.442015,2.317805 1.862215,-2.578328 4.736012,-2.010092 5.956183,-0.253095 z"
         id="path5"
         sodipodi:nodetypes="cccc" /><path
         style="fill:#8c1a12;fill-opacity:1;stroke:none;stroke-width:0.264583;stroke-opacity:0.303318"
         d="M 20.608393,7.8111701 C 7.5133514,5.0449079 7.6654125,21.594256 18.037304,18.554514 12.50059,19.087343 11.997966,7.6532677 20.608393,7.8111701 Z"
         id="path6"
         sodipodi:nodetypes="ccc" /><path
         style="fill:#f7ce45;fill-opacity:1;stroke:none;stroke-width:0.264583;stroke-opacity:0.303318"
         d="m 24.129156,19.043744 -3.468935,-2.053043 c -1.740229,3.16221 -7.593569,4.377289 -10.443738,-0.782037 1.81972,8.058023 10.994257,7.938173 13.912673,2.83508 z"
         id="path7"
         sodipodi:nodetypes="cccc" /></g><g
       id="g19"
       inkscape:label="helmet"
       transform="matrix(0.55100221,-0.18124142,0.18124142,0.55100221,2.9953612,6.0581644)"
       style="display:inline"><path
         style="display:inline;fill:#ebae0c;fill-opacity:1;stroke:none;stroke-width:0.264583;stroke-opacity:1"
         d="m 4.2739451,14.26673 0.083558,-0.722104 C 4.2878845,12.707591 3.8012009,12.184871 3.5068738,11.465435 2.9243436,9.5458933 2.8332821,7.1194849 5.5283869,3.9320442 7.3413537,1.9313787 12.24445,0.58134254 15.580849,4.3698013 15.083168,5.0539575 14.422728,5.7109872 13.772038,6.369642 l 0.02985,0.1432722 c 0.279411,0.2386217 0.5647,0.4760677 0.716361,0.7402393 l 0.489513,-0.00597 c 0.345529,0.1172475 0.241446,0.4001418 0.09552,0.6984519 -0.592106,0.9329201 -0.451254,1.4424383 -0.481563,2.0266975 -0.209184,0.2299231 -0.630591,0.2351401 -1.016826,0.2775971 -0.429439,0.16178 -0.814484,0.382751 -1.213892,0.584573 -0.239479,0.69227 -0.204581,1.018706 -0.08309,1.229683 0.140232,0.08628 0.345155,0.171623 0.352866,0.275319 -0.467505,1.34338 -0.306324,1.507723 -0.325467,2.008619 -0.09832,0.483376 -0.378628,0.186772 -0.646005,-0.0544 -0.687547,-0.758692 -0.691164,-3.419155 -1.8088161,-3.39323 -0.1994339,0.16548 -0.2781263,0.371207 -0.2108017,0.625606 0.3303918,0.917401 0.4911348,1.04116 0.5576048,1.434812 0.05043,0.726563 -0.4356249,0.86016 -0.8364074,1.08801 C 8.5826388,14.465851 7.9667795,14.308775 7.4815655,13.682062 7.0792815,13.17023 7.0999797,12.888411 6.6791586,11.893647 5.939707,12.305442 6.130387,12.631804 5.535251,13.362116 5.2144706,13.876525 4.8455184,14.210291 4.4362457,14.392854 4.400778,14.392736 4.3607957,14.38246 4.2739451,14.26673 Z"
         id="path8"
         sodipodi:nodetypes="cccccccccccccccccccccccccc"
         inkscape:label="yellow outline" /><path
         style="fill:#9c2807;fill-opacity:1;stroke:none;stroke-width:0.264583;stroke-opacity:1"
         d="M 7.3064504,13.067714 C 7.1868215,12.783384 6.6968329,11.939478 6.5326537,10.564977 6.4466515,9.3020842 6.5288942,8.0226968 7.5804796,6.6482758 8.7937238,5.4871168 10.156698,5.017019 11.663388,5.2102249 c 0.560019,0.1437885 1.036131,0.1687079 1.849955,0.6720538 l 0.257632,0.5003938 0.04926,0.1436616 c 0.284961,0.2264875 0.54771,0.4756022 0.710098,0.7347257 L 13.440777,7.463601 C 12.549279,6.3692478 11.457997,6.4878753 10.370479,6.583645 9.6834093,6.7111134 9.1052884,7.0229568 8.6049397,7.4664146 7.6284523,8.9455439 8.1337622,9.9092655 8.0439273,11.079994 7.8200597,12.227739 7.543582,12.58781 7.3064504,13.067714 Z"
         id="path9"
         sodipodi:nodetypes="ccccccccccccc"
         inkscape:label="red band" /><path
         style="fill:#9c2807;fill-opacity:1;stroke:none;stroke-width:0.264583;stroke-opacity:1"
         d="M 6.4538869,10.87105 C 5.4968799,11.1422 5.5340819,11.369168 5.1271946,12.373378 4.5239358,11.576209 3.6448933,10.40508 4.1013739,8.3879007 4.5557362,6.1909106 5.51178,4.9078025 6.5123453,4.0810697 7.60157,3.259879 8.8717334,2.5841488 11.062304,2.6483538 12.930009,2.9540244 13.842558,3.511052 14.474773,4.1418516 L 13.146254,5.5311518 C 11.383167,4.7456449 10.17409,5.0476392 9.0044026,5.4269543 7.2027949,6.4592339 7.0298482,7.2343566 6.6599585,8.0405755 6.245785,9.5155792 6.3765906,10.152153 6.4538869,10.87105 Z"
         id="path10"
         sodipodi:nodetypes="cccccccccc" /><path
         style="fill:#e0cda4;fill-opacity:1;stroke:none;stroke-width:0.264583;stroke-opacity:1"
         d="M 6.4487035,10.866894 C 5.458089,11.138256 5.4743174,11.483849 5.1236156,12.375136 4.1117054,11.055882 3.9385487,10.139134 3.9874758,9.1599186 4.159181,8.0461029 4.3516322,6.9218647 5.1589354,5.6082897 6.1285956,4.1628704 7.5074359,3.1195763 9.549615,2.7281842 c 2.09528,-0.2909325 4.097462,0.5074867 4.918988,1.4138423 l -1.314929,1.3894417 0.118343,0.052597 1.406974,-1.4201235 C 14.022821,3.5065059 13.143511,3.004592 11.982298,2.6991557 10.67566,2.3187229 9.221083,2.6115029 8.5577881,2.8386469 6.4594531,3.610316 5.7289132,4.6251488 4.9728629,5.6354463 4.5397031,6.4179382 4.1606867,7.2971148 3.9406278,8.4601441 3.9734655,9.1295268 3.5844361,9.6113823 4.2544829,11.23602 4.5144143,11.719799 4.936323,12.326366 5.1068667,12.626411 5.521917,11.48296 5.6050878,11.16194 6.4594928,10.926285 Z"
         id="path11"
         sodipodi:nodetypes="ccccccccccccccccc" /><path
         style="fill:#9c2807;fill-opacity:1;stroke:none;stroke-width:0.264583;stroke-opacity:1"
         d="m 6.4954832,11.185587 0.2251871,0.710504 C 6.1431717,12.036493 5.9749532,12.744152 5.6879158,13.11909 5.4851924,13.510387 5.2976383,13.704484 5.1094178,13.907245 4.8315299,14.186009 4.6478,14.2928 4.4389363,14.38868 4.3815933,14.401059 4.3242504,14.380829 4.2669075,14.256673 4.29744,13.663823 4.5203398,13.559826 4.0572506,12.528945 3.5538408,11.831993 3.3517388,11.097377 3.2391727,10.351569 3.1780693,9.5105258 2.9877079,8.8633699 3.6802513,6.8918565 4.0065479,6.0745099 4.4018085,5.2175457 5.4865216,3.9645131 6.1499854,3.273556 7.0165295,2.6342295 8.6399044,2.1873176 9.4602629,1.9734057 10.439805,1.8242134 11.983917,2.1475807 c 0.612371,0.2046875 1.131572,0.3208626 2.115167,0.8782125 0.449226,0.3790809 0.680868,0.4805542 1.40775,1.2138861 0.0689,0.079569 0.0935,0.1517531 0.03312,0.2097757 -0.274447,0.4321915 -1.149916,1.2804746 -1.805172,1.9763033 L 13.50268,5.8830241 C 14.051407,5.3047477 14.590156,4.6998637 15.169244,4.2025518 13.710406,2.6541858 12.532443,2.611513 11.867756,2.3735511 11.063659,2.133374 9.9467335,2.1536596 8.654888,2.4547753 6.9008503,3.0594442 6.3368155,3.6641132 5.6225185,4.2687821 4.39453,5.606412 4.4148038,6.1518754 3.9529103,7.0033297 3.4413003,8.3473178 3.499191,9.3007911 3.5467894,10.261322 c 0.2063573,0.812029 0.6449167,1.516888 1.0563794,2.234253 0.2234866,0.385581 0.2599675,0.641696 0.2733683,0.881833 0.2704156,-0.150103 0.5175877,-0.637236 0.7583763,-1.21693 0.1206373,-0.399476 0.3116652,-0.767397 0.8605698,-0.974891 z"
         id="path12"
         sodipodi:nodetypes="ccccccccccccccccccccccccccc" /><path
         style="display:inline;fill:#9c2807;fill-opacity:1;stroke:none;stroke-width:0.264583;stroke-opacity:1"
         d="m 15.027569,7.2474375 c -0.156841,-0.011587 -0.285407,0.00983 -0.537367,0.00467 L 13.449334,7.451303 C 12.516515,8.1923097 12.096641,8.8760284 11.747349,9.5356128 11.366611,8.9308117 11.183653,9.150098 10.959272,9.1967855 c -0.219004,0.1616765 -0.375485,0.42886 -0.374997,0.9609285 0.04729,0.288776 0.163742,0.513002 0.417184,0.60937 0.203123,0.07542 0.406246,0.08548 0.609369,0.0094 0.206106,-0.0321 0.377448,-0.08159 0.557807,-0.126561 0.143695,0.01164 0.336808,-0.08517 0.391147,0.08069 1.067995,-0.450947 0.659384,-0.444537 1.716498,-0.55652 0.253791,-0.09167 0.405451,-0.128317 0.362644,-0.391352 -0.01753,-0.5103737 0.01552,-1.0381387 0.374997,-1.6781093 0.125282,-0.2043279 0.237898,-0.4091248 0.22031,-0.6187442 -0.01896,-0.187021 -0.121583,-0.19384 -0.206662,-0.23845 z"
         id="path13"
         sodipodi:nodetypes="ccccccccccccccc" /><path
         style="display:inline;fill:#ebae0c;fill-opacity:1;stroke:none;stroke-width:0.264583;stroke-opacity:1"
         d="m 15.09615,7.4031456 c -1.115226,-0.103034 -1.365317,0.080039 -1.652978,0.2506885 -0.495992,0.3812377 -0.789049,0.7768744 -1.069142,1.1339055 -0.204589,0.2925167 -0.409179,0.589466 -0.613768,0.9019561 -0.03462,0.054508 -0.06714,0.065012 -0.09507,-0.020868 -0.121847,-0.548797 -0.41856,-0.4460366 -0.559665,-0.4588669 -0.444017,0.1870767 -0.438169,0.8351382 -0.385608,0.9904062 0.107348,0.333064 0.24902,0.630764 0.791512,0.515498 0.296295,-0.03554 0.561012,-0.126347 0.80369,-0.25572 0.392221,-0.214848 0.782636,-0.442339 1.181181,-0.6129151 0.300525,-0.059065 0.607464,-0.098888 0.921402,-0.1177121 -0.0072,-0.3613067 0.09357,-0.7968177 0.190775,-1.2298889 0.130299,-0.3635969 0.247507,-0.7264238 0.487671,-1.0964833 z"
         id="path14"
         sodipodi:nodetypes="ccccccccccccc" /><path
         style="fill:#efebec;fill-opacity:1;stroke:none;stroke-width:0.264583;stroke-opacity:1"
         d="m 14.553873,7.6738979 c -0.14131,0.053871 -0.318761,0.1530815 -0.464331,0.4021437 -2.72e-4,0.067304 0.06778,0.1117677 0.140957,0.058041 0.253525,-0.1869616 0.269675,-0.3296052 0.323374,-0.4601847 z"
         id="path15"
         sodipodi:nodetypes="cccc" /><path
         style="fill:#efebec;fill-opacity:1;stroke:none;stroke-width:0.264583;stroke-opacity:1"
         d="m 13.921636,7.914355 c -0.09414,0.057071 -0.18868,0.1214 -0.234238,0.2922796 -0.0076,0.147348 -0.01925,0.3247305 -0.01658,0.3979979 0.247778,-0.033308 0.433439,-0.061667 0.594924,-0.3047172 -0.07911,0.02686 -0.16908,0.044283 -0.310936,0.016584 -0.03946,-0.1423163 -0.0449,-0.261895 -0.03317,-0.4021443 z"
         id="path16"
         sodipodi:nodetypes="cccccc" /><path
         style="fill:#efebec;fill-opacity:1;stroke:none;stroke-width:0.264583;stroke-opacity:1"
         d="m 13.51563,8.2759721 c -0.08642,0.078359 -0.181281,0.2298946 -0.276968,0.3885822 -0.07354,0.2390926 -0.05147,0.3087129 -0.06201,0.4361215 0.152422,-0.016053 0.257979,0.029178 0.483661,-0.082677 0.133915,-0.085313 0.304267,-0.1753487 0.276968,-0.2397633 -0.178331,0.024305 -0.301245,-0.036146 -0.427854,-0.090945 -0.01653,-0.1036257 -0.0084,-0.2516223 0.0062,-0.4113184 z"
         id="path17"
         sodipodi:nodetypes="ccccccc" /><path
         style="fill:#efebec;fill-opacity:1;stroke:none;stroke-width:0.264583;stroke-opacity:1"
         d="m 13.014676,8.7754859 c -0.437197,0.3256117 -0.390837,0.603919 -0.400368,0.8876938 0.500933,0.1198313 0.700838,-0.093293 0.889506,-0.3188452 -0.190761,-0.00651 -0.3721,-0.01967 -0.481891,-0.083335 -0.02901,-0.1651626 -0.01533,-0.3249886 -0.0072,-0.4855141 z"
         id="path18"
         sodipodi:nodetypes="ccccc" /><path
         style="fill:#efebec;fill-opacity:1;stroke:none;stroke-width:0.264583;stroke-opacity:1"
         d="m 12.415208,9.486138 c -0.275765,0.1375469 -0.364186,0.3985712 -0.456312,0.657153 0.246751,0.0012 0.494763,0.07802 0.73749,-0.1622801 -0.117338,-0.02685 -0.229701,-0.065305 -0.3342,-0.1221115 0.0013,-0.1177219 0.0321,-0.2472082 0.05302,-0.3727614 z"
         id="path19"
         sodipodi:nodetypes="ccccc" /></g></g></svg>
